<svg xmlns="http://www.w3.org/2000/svg" id="Vector" viewBox="0 0 1200 1200"><defs><style>.cls-1,.cls-14,.cls-15,.cls-16,.cls-17,.cls-5{fill:none}.cls-1{stroke:#dfdfdf;stroke-miterlimit:10}.cls-1,.cls-14,.cls-16,.cls-5{stroke-width:4px}.cls-2{fill:#f3f3f3}.cls-3{fill:#dfdfdf}.cls-4{fill:#56cad8}.cls-5{stroke:#ed7562}.cls-14,.cls-15,.cls-16,.cls-17,.cls-5{stroke-linecap:round;stroke-linejoin:round}.cls-6{fill:#ed7562}.cls-7{fill:#de8e68}.cls-8{fill:#d37c59}.cls-9{fill:#fcc486}.cls-10{fill:#fed385}.cls-11{fill:#fed892}.cls-12{fill:#fd8369}.cls-13{fill:#74d5de}.cls-14{stroke:#fd8369}.cls-15{stroke:#8bdde4;stroke-width:3px}.cls-16,.cls-17{stroke:#f3f3f3}.cls-17{stroke-width:2px}</style></defs><title>Artboard 1</title><path d="M205.45 483.05H176v239.62" class="cls-1"/><path d="M261.28 453.49H523.7v505.38H261.28z" class="cls-2"/><path d="M200.96 453.49H262v505.38h-61.04z" class="cls-3"/><path d="M262.94 974c-59.23 0-160.29-90.39-160.29-165.46 0-5.71 2.71-16.49 8.69-16.49 32.33-.05 151.6 96.32 151.6 181.95Z" class="cls-4"/><path d="M655.57 316.71v329.85h18.93" class="cls-1"/><path d="M967.87 1008.54 902.89 899.2M996.05 1008.54 931.07 899.2M788.62 1008.54l64.97-109.34" class="cls-5"/><path d="M938 668.8h96.07l-64.52 233.83H805.87v-8.33h121.39Z" class="cls-6"/><path d="M778.15 1001.4h18.43v16.47h-18.43z" class="cls-7" transform="rotate(-8.84 787.473 1009.75)"/><path d="M666.64 983.46h18.43v16.47h-18.43z" class="cls-7" transform="rotate(33 675.809 991.523)"/><path d="M748.58 822.26c-13.45 0-80.58 156.29-80.58 162s14.57 12.19 16.72 12.19c3.35-3.11 67.61-96 74.3-102.48s-10.44-71.71-10.44-71.71Z" class="cls-4"/><path d="M855.4 707.49c-4.42 1.39-26 19.88-29.77 42.09-3.84-.46-26.88-1.42-36.48-1.81-3.14-4.89-9.75-8.28-17.42-8.28-10.69 0-19.36 6.57-19.36 14.67v.53h38.65v-.53a11.65 11.65 0 0 0-1.6-5.82l33.58 5.35 39.89 4.15L867 723Z" class="cls-8"/><path d="M888.52 682.74c0-2.81-7-6-12.14-6-13.72 0-36.93 25-36.93 28.14S856.16 722 869 722.84s19.52-40.1 19.52-40.1Z" class="cls-9"/><path d="M922.6 662.7c77.55 0 59.83 175.19 50 182.59s-96 8.08-101.61.68S830.57 662.7 922.6 662.7Z" class="cls-10"/><path d="M936.23 629.19h-31v41.53c0 6.59 31 6.64 31 0Z" class="cls-8"/><ellipse cx="914.86" cy="608.69" class="cls-7" rx="45.55" ry="30.64" transform="rotate(-80.94 914.796 608.698)"/><path d="M987.5 541.5c15 0 30 8 49 8 15 0 29-6 47-6 32 0 42 21 42 34 0 33-27 46-47 46-32 0-36-22-74-22-37 0-32-30-40-30-4 0-6.5.5-8 2s-9-4-9-6 10-26 40-26Z"/><path d="M920.5 552.5c-35.37 0-42.77 26.91-42.77 34.68s4.91 13.53 7.42 13.72c1.56-9.29 9-22.11 9.35-22.4 2 2 9.41 8.42 17 9a37.69 37.69 0 0 1 17.85 5.56 19.09 19.09 0 0 0 2.86 7.24 17.38 17.38 0 0 0 8.78 7.15 21.64 21.64 0 0 1 1.51 7c0 10.68-1 15-2 18 16.3 0 24-16.79 24-38 0-34.92-30.9-41.95-44-41.95Z"/><circle cx="942.45" cy="614.66" r="8.64" class="cls-7"/><path d="M913.5 727.37c-3.49.84-17.48 9.51-25.87 24.47-8.25-1.54-41.81-9.93-71.6-9.93-2.8 0-10.07-2.3-13-2.3-17.47 0-21.12 9.44-21.12 12.23s.6 2.87 1.14 2.87c60 0 75.09 25.31 108.84 25.31 10.92 0 33.43-7.91 47-28.17-4.76-16.14-25.39-24.48-25.39-24.48Z" class="cls-7"/><path d="M972.48 693.27c18.74 18.19-28.65 68.54-36.25 67.8s-35-29.59-35.26-38.36 53.4-47.03 71.51-29.44Z" class="cls-11"/><path d="M587.77 756.95H1011v13.66H587.77z" class="cls-12"/><path d="M972.43 854c0-4.3.75-9.28-1.93-10.39-63.62-26.23-156.76-29.63-171.11-29.63s-56.31 1.46-56.31 13.47c0 43.38 24.17 176.93 29.08 181.92 2.33 2.35 22.65.78 25.18-1.76-.17-11 6.22-121.49.39-134.87 53.47 19.6 114.19 28.88 130.19 28.88 46.37-.05 44.51-42.52 44.51-47.62Z" class="cls-13"/><path d="m680.52 1001.56-16.14-10.76-43.44-9.1-4.13 6.82 51.19 31.65 12.52-18.61zM799.23 1012.08l-19.15 3.01-38.13 22.72 1.58 7.83 59.1-11.38-3.4-22.18z"/><path d="M988.26 974.33V766.79M636.61 974.33V766.79M958.54 1015.92V766.79M605.21 1015.92V766.79" class="cls-14"/><path d="M817.53 1008.54 882.5 899.2" class="cls-5"/><path d="M743.08 754.44h70.27v2.51h-70.27zM665.13 590.85h153.42v111.41H665.13z" class="cls-13"/><path d="m720.29 681.31-21.16 75.64h37.09l20.54-75.64h-36.47z" class="cls-4"/><path d="M750.19 322.09a44.73 44.73 0 0 0-47.45-73.68 62 62 0 0 0-109 9.67 44.73 44.73 0 0 0-55.41 64Z" class="cls-3"/><path d="M639.95 313.62v71.72H419.88v68.15" class="cls-1"/><path d="M296.48 1015.92c5.85 0 17.25-19.82 17.25-58.26 0-28.11-19.7-46.29-25.55-74.14-9-42.71-53.57-168.17-123.16-168.17-8 0-18.74 16.81-18.74 51.44 0 42 40.68 85.49 40.68 94.51.04 102.99 90.87 154.62 109.52 154.62Z" class="cls-13"/><path d="M296.93 1015.92c0-5.63-8.14-43.4-12.37-52.84s-20.84-56.65-23.44-69.68-50.79-140.32-96.05-172.56M276.16 940.85l-75.92-15.46M279.98 951.4l-69.53-5.79M258.1 883.56l-70.57-21.36M264.82 906.95l21.54-15.66M224.04 804.06l21.28-24.13M217.39 791.21l18.11-24.57" class="cls-15"/><path d="M283.02 485.46h218.93v42.2H283.02z" class="cls-3"/><circle cx="486.23" cy="501.26" r="7.4" class="cls-2"/><path d="M358.62 501.26H472.6" class="cls-16"/><path d="M283.02 556.8h218.93V599H283.02z" class="cls-3"/><circle cx="486.23" cy="572.6" r="7.4" class="cls-2"/><path d="M358.62 572.6H472.6" class="cls-16"/><path d="M283.02 628.13h218.93v42.2H283.02z" class="cls-3"/><circle cx="486.23" cy="643.93" r="7.4" class="cls-2"/><path d="M358.62 643.93H472.6" class="cls-16"/><path d="M283.02 699.47h218.93v42.2H283.02z" class="cls-3"/><circle cx="486.23" cy="715.27" r="7.4" class="cls-2"/><path d="M358.62 715.27H472.6" class="cls-16"/><path d="M283.02 770.8h218.93V813H283.02z" class="cls-3"/><circle cx="486.23" cy="786.61" r="7.4" class="cls-2"/><path d="M358.62 786.61H472.6" class="cls-16"/><path d="M215.06 515.82h32.84M215.06 524.32h32.84M215.06 573.65h32.84M215.06 582.15h32.84M215.06 643.93h32.84M215.06 652.44h32.84M215.06 711.93h32.84M215.06 720.44h32.84" class="cls-17"/></svg>