<svg xmlns="http://www.w3.org/2000/svg" width="1440" height="1024" fill="none" viewBox="0 0 1440 1024"><path fill="transparent" d="M0 0h1440v1024H0z"/><g clip-path="url(#a)"><path fill="#1C85E8" d="M425.223 79h602.867c9.12 0 17.86 3.621 24.31 10.067a34.388 34.388 0 0 1 10.06 24.304v37.949H390.852v-37.949A34.374 34.374 0 0 1 425.223 79Z"/><path fill="url(#b)" d="M390.852 151.32h671.608v608.778c0 8.251-1.62 16.422-4.78 24.045a62.781 62.781 0 0 1-13.62 20.385 62.8 62.8 0 0 1-44.43 18.404H453.686a62.845 62.845 0 0 1-44.43-18.404 62.832 62.832 0 0 1-18.404-44.43V151.32Z"/><path fill="#FFCCB3" d="M829.666 583.162H645.453v89.463h184.213v-89.463Z"/><path fill="#1F2D49" d="M644.368 638.316c-21.604 21.257-30.104 125.944-28.966 184.616h257.17s-.462-127.947-19.959-171.063c-17.93-39.651-47.734 18.839-208.245-13.553Z"/><path fill="#080B09" d="M798.713 176.014s21.338-24.339 62.756-27.88c41.419-3.541 53.812 32.736 52.042 55.024-1.771 22.288-34.23 68.321-27.738 87.797 6.492 19.475-24.035 10.033-27.362-28.919-3.327-38.951-15.721-93.246-49.36-73.771l-10.338-12.251Z"/><path fill="#1C85E8" d="M805.19 164.621s5.103-2.957 8.798 3.941c3.696 6.898 10.598 20.905 1.85 24.618-8.748 3.714-10.648-28.559-10.648-28.559ZM686.876 388.941s33.087 37.137 22.083 49.049c-21.794 24.482-79.761 70.495-98.754 85.726a7.813 7.813 0 0 1-2.755 1.351 7.808 7.808 0 0 1-5.961-.815 7.823 7.823 0 0 1-2.291-2.041l-44.913-59.049a11.242 11.242 0 0 1 1.54-15.37l86.997-75.019 44.054 16.168Z"/><path fill="#0E66AF" d="M634.641 436.154s-41.234 24.508-44.95 73.75l8.212 10.55s5.156 8.986 12.302 3.262l40.2-32.201-15.764-55.361Z"/><path fill="#1C85E8" d="M673.195 454.822c25.72 0 46.571-20.85 46.571-46.571 0-25.72-20.851-46.571-46.571-46.571s-46.571 20.851-46.571 46.571c0 25.721 20.851 46.571 46.571 46.571Z"/><path fill="#FFCCB3" d="m551.925 554.235-40.699-53.888 38.528-29.911 6.039-4.862 42.217 55.209-7.351 5.287-38.734 28.165Z"/><path fill="#FF967C" d="M590.658 526.07c-10.902-14.596-31.403-43.123-40.904-55.634l6.039-4.862 42.11 54.88-7.245 5.616Z"/><path fill="#FFCCB3" d="M530.957 561.71c18.671 0 33.807-15.136 33.807-33.807 0-18.672-15.136-33.808-33.807-33.808-18.672 0-33.808 15.136-33.808 33.808 0 18.671 15.136 33.807 33.808 33.807Z"/><path fill="#FFCCB3" d="M559.582 509.716S450.526 349.56 445.485 335.959c-4.906-13.283-30.665 18.68-30.665 18.68l84.403 184.15 60.359-29.073ZM709.72 286.372l-13.11 91.404s-3.442 12.132 11.832 13.968c15.274 1.837 47.842-2.267 59.473-14.662 11.632-12.395 7.563-18.536 7.563-18.536l-24.669-99.21-41.089 27.036Z"/><path fill="#FF967C" d="m707.896 298.2 32.069-11.327-39.73 58.884 7.661-47.557Z"/><path fill="#FFCCB3" d="M673.437 173.47s-27.513 64.645-13.174 108.951c9.351 28.895 29.715 34.09 76.353 12.436 42.763-19.854 53.87-34.873 53.87-34.873l6.306-72.063s-95.414-72.07-123.355-14.451Z"/><path fill="#1C85E8" d="M696.378 351.496s-35.244 9.792-42.396 15.514c-7.153 5.722-12.355 52.231-22.926 75.204-15.65 34.01-25.782 52.103.51 89.478 15.857 22.543 10.465 79.852 10.465 79.852h193.066c-5.85-112.687 20.035-245.526 20.035-245.526l-87.134-20.078c-19.646 3.387-71.62 5.556-71.62 5.556Z"/><path fill="#1C85E8" d="M690.215 353.314s2.606-17.714 10.935-18.961c8.329-1.247 59.226-8.903 67.143-5.569 7.916 3.333 17.5 24.53 17.5 24.53s-16.25 39.635-39.583 41.718c-23.333 2.084-63.493-5.109-59.246-19.846 4.247-14.736 3.251-21.872 3.251-21.872Z"/><path stroke="#fff" stroke-miterlimit="10" stroke-width="1.357" d="M674.364 358.699s5.63 34.185 36.207 33.646c30.577-.54 75.01-46.405 75.01-46.405"/><path fill="#0E66AF" d="M812.9 408.251s-30.384 20.088-21.433 40.358c10.064 22.791 9.977 81.488-18.906 85.167-51.535 6.563-29.144 15.575-5.316 21.334 23.829 5.758 14.073 5.764 14.073 30.45 0 17.569 55.213 32.802 53.779 18.606-9.601-94.979 30.306-155.12-22.197-195.915Z"/><path fill="#E56441" stroke="#E56441" d="m670.985 268.58 25.593 1.266a15.057 15.057 0 0 1-2.733 5.205c-2.271 2.782-6.237 5.426-13.088 4.733-4.327-.829-6.787-3.738-8.18-6.492a18.06 18.06 0 0 1-1.592-4.712Z"/><path fill="#080B09" d="M672.674 226.084c1.069-3.965-.245-7.767-2.935-8.493s-5.738 1.9-6.808 5.865c-1.069 3.965.245 7.767 2.935 8.493 2.69.725 5.738-1.9 6.808-5.865ZM712.267 237.374c1.069-3.965-.244-7.767-2.935-8.493-2.69-.725-5.738 1.9-6.808 5.865-1.069 3.965.245 7.767 2.935 8.493 2.691.726 5.738-1.9 6.808-5.865ZM662.662 205.604l20.127 5.786a1.476 1.476 0 0 0 1.685-.968 4.733 4.733 0 0 0-.96-3.608 4.734 4.734 0 0 0-3.271-1.8l-17.287-1.819c-1.326-.358-1.952 1.962-.294 2.409ZM731.473 222.809l-27.295-5.585a6.078 6.078 0 0 1 8.149-3.846l19.924 7.864c.662.178.215 1.836-.778 1.567Z"/><path stroke="#E56441" stroke-linecap="round" stroke-width="2.239" d="M684.846 227.218 671.9 244.652l4.875 6.893"/><path fill="#fff" d="M708.922 417.424c2.507 0 4.539-5.614 4.539-12.54 0-6.925-2.032-12.54-4.539-12.54-2.507 0-4.539 5.615-4.539 12.54 0 6.926 2.032 12.54 4.539 12.54Z"/><path fill="#FFCCB3" d="m918.131 589.957-67.304 5.515-11.49-48.777-13.841-37.508 70.831-8.477 8.855 41.978 12.949 47.269Z"/><path fill="#FF967C" d="m898.718 512.046 2.483 11.771-69.752 1.501-4.589-12.434 71.858-.838Z"/><path fill="#1C85E8" d="M843.552 457.697c25.72 0 46.57-20.85 46.57-46.571 0-25.72-20.85-46.571-46.57-46.571-25.721 0-46.571 20.851-46.571 46.571 0 25.721 20.85 46.571 46.571 46.571Z"/><path fill="#1C85E8" d="M834.57 389.232s49.081-8.057 53.249 7.616c9.004 31.516 20.073 82.111 22.765 106.308a7.838 7.838 0 0 1-1.815 5.737 7.823 7.823 0 0 1-5.351 2.752l-73.919 6.31a11.242 11.242 0 0 1-12.156-9.532l-20.019-90.645 37.246-28.546Z"/><path fill="#080B09" d="M690.59 167.325s1.741 31.4 28.341 46.616c0 0 7.779 24.083 36.81 29.747 0 0-1.715-22.135 12.122-21.901 23.496.398 11.939 36.039-3.946 41.886-10.796 3.974-17.298 18.078-1.273 50.221 36.797-13.124 62.675-66.128 52.529-124.933-8.124-47.092-66.505-62.47-78.5-60.936 0 0-49.814-17.209-76.043 29.988-22.422 40.346-1.482 64.425-1.482 64.425l11.95-35.908s4.991 3.505 19.492-19.205Z"/><path fill="url(#c)" d="M918.38 706.315H740.114a14.15 14.15 0 0 1-14.04-12.391L709.62 562.605a14.144 14.144 0 0 1 14.04-15.91h211.174a14.146 14.146 0 0 1 14.04 15.91L932.42 693.924a14.154 14.154 0 0 1-4.677 8.851 14.154 14.154 0 0 1-9.363 3.54Z"/><path fill="#fff" d="M829.666 636.569c6.911 0 12.513-5.602 12.513-12.512 0-6.911-5.602-12.513-12.513-12.513-6.91 0-12.512 5.602-12.512 12.513 0 6.91 5.602 12.512 12.512 12.512Z"/><path fill="#FFCCB3" d="m419.455 365.16-10.742-20.609s-37.984-21.728-42.386-29.583c-4.403-7.857-6.133-30.287 1.66-36.03 0 0-30.305-22.762-25.146-27.374 5.142-4.946 64.683 39.285 64.683 39.285s-7.249-32.586 3.767-34.113a114.353 114.353 0 0 0 15.117 35.574c11.598 17.932 13.027 33.993 13.027 33.993l13.669 26.234-33.649 12.623Z"/><path stroke="#FF967C" stroke-linecap="round" stroke-linejoin="round" stroke-width="2.872" d="m370.03 279.514 18.353 11.566M367.294 292.746l15.576 9.682M370.321 307.051l10.389 6.566"/><path fill="#fff" d="M441.823 123.907a8.747 8.747 0 0 0 8.747-8.747 8.747 8.747 0 0 0-8.747-8.747 8.747 8.747 0 0 0-8.747 8.747 8.747 8.747 0 0 0 8.747 8.747ZM477.151 123.907a8.747 8.747 0 0 0 8.747-8.747 8.747 8.747 0 0 0-8.747-8.747 8.747 8.747 0 0 0-8.747 8.747 8.747 8.747 0 0 0 8.747 8.747ZM510.345 123.907a8.747 8.747 0 0 0 8.747-8.747 8.747 8.747 0 0 0-8.747-8.747 8.747 8.747 0 0 0-8.747 8.747 8.747 8.747 0 0 0 8.747 8.747Z"/><path fill="#FEBB94" d="M247.597 114.088c35.167 29.992 127.91 98.376 245.698 101.643a9.26 9.26 0 0 1 8.981 9.269v186.633a9.273 9.273 0 0 1-8.815 9.267c-35.414 1.762-169.707 1.557-258.691-93.712a9.215 9.215 0 0 1-2.458-6.294V121.156a9.275 9.275 0 0 1 15.285-7.068Z" opacity=".7"/><path stroke="#fff" stroke-linecap="round" stroke-miterlimit="10" stroke-width="7.433" d="M260.937 169.086s27.751 26.965 65.683 43.715"/><path stroke="#fff" stroke-linecap="round" stroke-miterlimit="10" stroke-width="7.433" d="M260.937 201.777s38.622 36.025 88.863 49.401" opacity=".4"/><path fill="#fff" d="M255.184 321.315V243.36l27.331 19.558v79.839l-27.331-21.442ZM301.315 352.815v-55.543l27.331 16.345v54.907l-27.331-15.709ZM418.183 396.296v-55.543l-27.331-3.741v54.907l27.331 4.377ZM463.076 398.674v-97.246h-27.331v96.611l27.331.635ZM346.084 377.151v-25.394l27.331 7.686v27.606l-27.331-9.898Z"/><path fill="#96BAFD" d="M316.048 500.814c35.167 25.822 127.91 93.208 245.698 82.506a8.05 8.05 0 0 1 8.342 4.843 8.062 8.062 0 0 1 .639 3.361v186.634a10.744 10.744 0 0 1-8.815 10.312c-35.415 5.962-182.706 3.018-258.692-73.034a8.428 8.428 0 0 1-2.457-6.003V509.695c0-7.91 9.266-13.301 15.285-8.881Z" opacity=".7"/><path fill="#FFCCB3" d="M882.081 700.957s9.422.782 8.003 5.537c-1.42 4.754-9.831 2.56-17.512 7.314-7.68 4.755-38.046 8.148-53.213 5.62-15.168-2.528-19.381-18.471-19.381-18.471s-2.536-15.126 24.256-16.679c26.791-1.553 39.26 7.044 43.92 16.363l13.927.316Z"/><path stroke="#E56441" stroke-linecap="round" stroke-width="2.239" d="m811.368 686.629 5.786 15.563M826.354 684.095l5.786 15.563M842.179 685.413l5.786 15.563"/><path fill="#1C85E8" d="M1167.2 515.997c-49.05 41.836-178.416 137.225-342.718 141.782a12.916 12.916 0 0 0-12.528 12.929v260.335a12.935 12.935 0 0 0 12.295 12.926c49.4 2.458 236.721 2.172 360.851-130.718a12.872 12.872 0 0 0 3.43-8.78V525.857a12.96 12.96 0 0 0-7.51-11.75 12.932 12.932 0 0 0-7.18-1.075 12.993 12.993 0 0 0-6.64 2.965Z" opacity=".7"/><path stroke="#fff" stroke-linecap="round" stroke-miterlimit="10" stroke-width="10.368" d="M1148.6 592.714s-38.71 37.614-91.62 60.979"/><path stroke="#fff" stroke-linecap="round" stroke-miterlimit="10" stroke-width="10.368" d="M1148.6 638.316s-53.88 50.25-123.96 68.909" opacity=".4"/><path fill="#fff" d="M1123.44 433.638H973.698a22.374 22.374 0 0 0-22.371 22.371v46.327a22.374 22.374 0 0 0 22.371 22.372h53.162l15.68 15.686a7.833 7.833 0 0 0 11.08 0l15.68-15.686h54.14a22.368 22.368 0 0 0 22.37-22.372v-46.327c0-5.933-2.35-11.623-6.55-15.819a22.371 22.371 0 0 0-15.82-6.552Z"/><path fill="#F4608A" d="M1014.85 464.478a10.818 10.818 0 0 0-14.68 0l-2.764 2.553-2.766-2.553a10.812 10.812 0 0 0-14.681 0 10.189 10.189 0 0 0 0 15.106l17.447 16.171 17.444-15.958c1.1-.949 1.99-2.125 2.59-3.446.61-1.322.92-2.759.92-4.213 0-1.454-.31-2.891-.92-4.213a10.05 10.05 0 0 0-2.59-3.447Z"/><path fill="#1C85E8" d="M1034.33 473.927c.15-1.959.91-3.493 2.27-4.601 1.36-1.107 3.13-1.661 5.3-1.661 1.45 0 2.7.266 3.74.799 1.07.511 1.87 1.214 2.4 2.108.55.895.83 1.907.83 3.036 0 1.32-.38 2.46-1.15 3.418-.75.959-1.73 1.577-2.94 1.854v.159c1.38.341 2.48 1.012 3.29 2.013s1.22 2.311 1.22 3.93c0 1.214-.28 2.311-.84 3.291-.55.959-1.38 1.715-2.49 2.269-1.11.553-2.44.83-3.99.83-2.26 0-4.11-.585-5.56-1.757-1.45-1.193-2.26-2.875-2.43-5.048h2.81c.15 1.278.67 2.322 1.57 3.131.89.809 2.09 1.214 3.58 1.214 1.49 0 2.62-.383 3.38-1.15.79-.788 1.19-1.8 1.19-3.035 0-1.598-.54-2.748-1.6-3.451-1.07-.703-2.68-1.054-4.83-1.054h-.73v-2.429h.77c1.95-.021 3.44-.341 4.44-.958 1-.639 1.5-1.619 1.5-2.94 0-1.129-.37-2.034-1.12-2.716-.72-.681-1.77-1.022-3.13-1.022-1.32 0-2.39.341-3.2 1.022-.81.682-1.29 1.598-1.43 2.748h-2.85Zm22.36 13.26-3.57 8.595h-1.95l2.33-8.595h3.19Zm17.58-16.551h-11.21v7.285c.49-.682 1.21-1.235 2.17-1.661a7.228 7.228 0 0 1 3.1-.671c1.77 0 3.21.372 4.31 1.118 1.11.724 1.9 1.672 2.37 2.844.49 1.15.73 2.375.73 3.674 0 1.534-.28 2.907-.86 4.122-.57 1.214-1.46 2.172-2.65 2.875-1.17.703-2.63 1.055-4.38 1.055-2.23 0-4.04-.576-5.43-1.726-1.38-1.15-2.23-2.684-2.52-4.601h2.84c.28 1.214.86 2.162 1.76 2.844.89.682 2.02 1.022 3.38 1.022 1.69 0 2.95-.5 3.81-1.501.85-1.023 1.27-2.365 1.27-4.026 0-1.662-.42-2.94-1.27-3.834-.86-.916-2.11-1.374-3.77-1.374-1.13 0-2.12.277-2.98.831-.83.532-1.43 1.267-1.82 2.204h-2.74V468.08h13.89v2.556Zm4.99 18.244c2.7-2.172 4.82-3.951 6.35-5.336 1.54-1.405 2.83-2.865 3.87-4.377 1.07-1.534 1.6-3.035 1.6-4.505 0-1.384-.34-2.471-1.02-3.259-.66-.809-1.74-1.214-3.23-1.214-1.45 0-2.58.458-3.39 1.374-.79.894-1.21 2.098-1.28 3.61h-2.81c.09-2.385.81-4.228 2.17-5.527 1.37-1.3 3.13-1.949 5.28-1.949 2.19 0 3.93.607 5.2 1.821 1.3 1.214 1.95 2.886 1.95 5.016 0 1.768-.53 3.494-1.59 5.176-1.05 1.662-2.24 3.132-3.58 4.41-1.34 1.256-3.06 2.726-5.15 4.409h10.99v2.428h-15.36v-2.077Zm32.94-18.499-8.88 20.832h-2.94l9.01-20.545h-12.33v-2.492h15.14v2.205Z"/><path fill="#1C85E8" d="M244.867 860.04h112.897a16.864 16.864 0 0 0 16.867-16.866v-34.928a16.864 16.864 0 0 0-16.867-16.867h-40.077l-11.827-11.827a5.905 5.905 0 0 0-8.349 0l-11.827 11.827h-40.817A16.867 16.867 0 0 0 228 808.246v34.928a16.866 16.866 0 0 0 16.867 16.866Z" opacity=".7"/><path fill="#fff" d="M298.052 834.295c2.04-1.638 3.637-2.979 4.794-4.023 1.156-1.06 2.128-2.16 2.915-3.3.803-1.157 1.204-2.289 1.204-3.397 0-1.044-.257-1.863-.771-2.457-.498-.61-1.309-.916-2.433-.916-1.092 0-1.943.346-2.553 1.036-.594.675-.916 1.582-.964 2.722h-2.12c.065-1.798.611-3.187 1.638-4.167 1.028-.98 2.353-1.469 3.975-1.469 1.654 0 2.963.457 3.927 1.373.979.915 1.469 2.176 1.469 3.782 0 1.333-.401 2.633-1.204 3.902a17.192 17.192 0 0 1-2.698 3.324c-1.012.948-2.305 2.056-3.879 3.325h8.287v1.83h-11.587v-1.565Zm13.591-2.12v-1.662l8.455-11.708h2.626v11.467h2.409v1.903h-2.409v3.878h-2.168v-3.878h-8.913Zm9.009-11.081-6.48 9.178h6.48v-9.178Zm6.623 1.927c.112-1.478.682-2.634 1.71-3.469s2.361-1.253 3.999-1.253c1.092 0 2.031.201 2.818.603.803.385 1.405.915 1.807 1.59.417.674.626 1.437.626 2.288 0 .996-.289 1.855-.867 2.578-.562.722-1.301 1.188-2.216 1.397v.12c1.044.257 1.871.763 2.481 1.518.61.755.915 1.742.915 2.963 0 .915-.209 1.742-.626 2.481-.418.723-1.044 1.293-1.879 1.71-.835.418-1.839.627-3.011.627-1.702 0-3.1-.442-4.192-1.325-1.092-.9-1.702-2.168-1.83-3.806h2.119c.113.963.506 1.75 1.181 2.36.674.611 1.574.916 2.698.916 1.124 0 1.975-.289 2.553-.868.594-.594.892-1.357.892-2.288 0-1.204-.402-2.072-1.205-2.602-.803-.53-2.015-.795-3.637-.795h-.554v-1.83h.578c1.477-.016 2.593-.257 3.348-.723.755-.482 1.132-1.221 1.132-2.216 0-.851-.281-1.534-.843-2.048-.546-.514-1.333-.771-2.361-.771-.995 0-1.798.257-2.409.771-.61.514-.971 1.205-1.084 2.072h-2.143Zm23.941-.241c-.353-1.783-1.453-2.674-3.3-2.674-1.43 0-2.498.554-3.204 1.662-.707 1.092-1.052 2.899-1.036 5.42.369-.835.98-1.485 1.831-1.951.867-.482 1.831-.723 2.89-.723 1.655 0 2.971.514 3.951 1.542.996 1.028 1.494 2.449 1.494 4.264 0 1.092-.217 2.072-.651 2.939-.417.867-1.06 1.558-1.927 2.071-.851.514-1.887.771-3.107.771-1.655 0-2.947-.369-3.879-1.108-.931-.739-1.582-1.758-1.951-3.059-.369-1.301-.554-2.907-.554-4.818 0-5.894 2.056-8.841 6.167-8.841 1.574 0 2.81.426 3.71 1.277.899.851 1.429 1.927 1.589 3.228h-2.023Zm-3.276 3.589a4.5 4.5 0 0 0-1.951.434 3.464 3.464 0 0 0-1.494 1.277c-.369.562-.554 1.252-.554 2.071 0 1.221.353 2.216 1.06 2.987.707.755 1.718 1.133 3.035 1.133 1.124 0 2.016-.346 2.674-1.036.675-.707 1.012-1.654 1.012-2.843 0-1.252-.321-2.232-.964-2.939-.642-.722-1.582-1.084-2.818-1.084Z"/><path stroke="#fff" stroke-linecap="round" stroke-miterlimit="10" stroke-width="10.368" d="M845.781 830.977s36.004-7.538 52.466-25.002c21.811-23.139 26.842-50.888 50.739-53.742 37.503-4.478 59.244 127.928 104.774 110.014s34.77-116.791 61.86-133.55c18.66-11.545 28.36 22.79 54.49 13.833"/><path fill="url(#d)" d="M491.457 722.33c26.914 7.684 89.878 21.416 172.383 11.944a9.235 9.235 0 0 1 7.425 2.234 9.225 9.225 0 0 1 3.099 7.108v127.333a11.938 11.938 0 0 1-10.137 11.543c-29.376 4.016-116.6 12.607-181.6-15.457a9.202 9.202 0 0 1-5.476-8.626V733.592c0-7.383 7.432-13.225 14.306-11.262Z" opacity=".7"/><path fill="#fff" d="M250.053 839.577h3.698a2.593 2.593 0 0 0 2.59-2.589v-17.015a2.593 2.593 0 0 0-2.59-2.589h-3.698a2.593 2.593 0 0 0-2.59 2.589v17.015a2.591 2.591 0 0 0 2.59 2.589ZM266.373 806.657c-1.479 0-2.219.74-2.219 4.439 0 3.516-3.404 6.344-5.594 7.802v18.328c2.369 1.097 7.11 2.721 14.471 2.721h2.367a5.91 5.91 0 0 0 5.83-4.912l1.657-9.617a5.918 5.918 0 0 0-3.333-6.372 5.915 5.915 0 0 0-2.496-.552h-6.984a14.286 14.286 0 0 0 1.11-5.918c0-4.439-3.329-5.918-4.809-5.918v-.001ZM373.281 689.646c-19.624-6.919-35.532-28.437-35.532-48.061 0-19.625 15.908-29.924 35.532-23.004v-22.808c-31.703-11.179-57.403 5.46-57.403 37.163 0 31.703 25.7 66.465 57.403 77.644 30.364 10.706 55.205-4.114 57.251-33.237l-21.857-7.707c-1.545 17.654-16.796 26.568-35.394 20.01Z"/><path fill="#1C85E8" d="M380.57 591.055v22.807c19.624 6.92 35.532 28.438 35.532 48.062 0 1.026-.053 2.02-.138 2.994l21.856 7.707c.09-1.285.153-2.587.153-3.927 0-31.703-25.701-66.465-57.403-77.643Z"/><path stroke="#fff" stroke-miterlimit="10" stroke-width="2.428" d="M373.281 689.646v20.934M337.749 641.585l-21.871-7.712"/><path stroke="#fff" stroke-linecap="round" stroke-miterlimit="10" stroke-width="10.368" d="m465.337 644.845 40.583 7.712"/><path stroke="#fff" stroke-linecap="round" stroke-miterlimit="10" stroke-width="10.368" d="m465.337 708.434 40.583 7.712" opacity=".4"/><path stroke="#fff" stroke-linecap="round" stroke-miterlimit="10" stroke-width="10.368" d="m465.337 677.287 58.305 11.079"/><path fill="url(#e)" d="M1197.27 99.328c-35.17 25.822-99.5 90.936-239.904 112.57-10.749 1.656-14.774 9.304-14.774 17.755v178.02a10.744 10.744 0 0 0 8.815 10.311c35.415 5.962 171.803-28.829 253.363-98.874 7.79-6.69 7.79-17.913 7.79-20.245V108.21c0-7.91-9.27-13.3-15.29-8.882Z" opacity=".7"/><path fill="#fff" d="M961.156 243.621V353.73a6.392 6.392 0 0 0 7.787 6.244c20.056-4.492 74.307-17.479 108.567-33.642a6.38 6.38 0 0 0 2.67-2.361c.64-1.024.99-2.211.98-3.422V213.321a6.227 6.227 0 0 0-.78-3.069 6.299 6.299 0 0 0-2.16-2.316 6.363 6.363 0 0 0-3-.997 6.417 6.417 0 0 0-3.12.568c-19.09 8.793-64.97 28.001-104.875 29.729a6.372 6.372 0 0 0-6.069 6.385Z"/><path fill="#1C85E8" d="M966.115 336.006v11.581a5.699 5.699 0 0 0 7.203 5.499l60.012-16.407a5.677 5.677 0 0 0 3.98-3.937 5.67 5.67 0 0 0 .06-2.892 5.768 5.768 0 0 0-1.36-2.55l-32.18-34.617a5.687 5.687 0 0 0-4.556-1.807 5.702 5.702 0 0 0-4.275 2.401l-27.841 39.441a5.7 5.7 0 0 0-1.043 3.288Z"/><path fill="#1C85E8" d="m1027.3 308.843 18.01 19.11a4.234 4.234 0 0 0 4.62 1.042c5.32-2.078 17.27-6.776 23.32-9.378.76-.328 1.4-.87 1.86-1.561.45-.691.69-1.5.69-2.327v-17.906c0-.914-.3-1.803-.84-2.534l-25.32-33.918a4.238 4.238 0 0 0-6.05-.773c-.59.475-1.04 1.1-1.31 1.811l-15.86 42.033a4.2 4.2 0 0 0-.19 2.327c.15.778.53 1.496 1.07 2.074Z" opacity=".6"/><path fill="#FEBB94" d="M1011.49 279.004c5.34 0 9.67-4.328 9.67-9.668 0-5.34-4.33-9.668-9.67-9.668s-9.67 4.328-9.67 9.668c0 5.34 4.33 9.668 9.67 9.668Z"/><path stroke="#fff" stroke-linecap="round" stroke-miterlimit="10" stroke-width="10.368" d="M1109.04 203.914a582.292 582.292 0 0 0 71.45-42.923M1109.04 245.679s16.26-7.925 38.57-21.461M1109.04 286.512a582.417 582.417 0 0 0 71.45-42.923M1109.04 332.356a582.417 582.417 0 0 0 71.45-42.923"/><path fill="#fff" d="M974.945 391.729a8.83 8.83 0 1 0 0-17.661 8.83 8.83 0 0 0-8.83 8.831 8.83 8.83 0 0 0 8.83 8.83ZM1026.15 377.442c4.87 0 8.83-3.953 8.83-8.83 0-4.877-3.96-8.83-8.83-8.83a8.828 8.828 0 0 0-8.83 8.83c0 4.877 3.95 8.83 8.83 8.83ZM1072.33 361.668c4.88 0 8.83-3.954 8.83-8.831 0-4.877-3.95-8.83-8.83-8.83-4.87 0-8.83 3.953-8.83 8.83 0 4.877 3.96 8.831 8.83 8.831Z"/></g><defs><linearGradient id="b" x1="645.676" x2="1005.7" y1="-685.866" y2="1546.48" gradientUnits="userSpaceOnUse"><stop stop-color="#fff"/><stop offset="1" stop-color="#94B9FF"/></linearGradient><linearGradient id="c" x1="823.285" x2="847.901" y1="546.316" y2="886.944" gradientUnits="userSpaceOnUse"><stop stop-color="#fff"/><stop offset="1" stop-color="#94B9FF"/></linearGradient><linearGradient id="d" x1="570.848" x2="602.688" y1="721.554" y2="1072.6" gradientUnits="userSpaceOnUse"><stop stop-color="#fff"/><stop offset="1" stop-color="#94B9FF"/></linearGradient><linearGradient id="e" x1="1045.02" x2="1247.39" y1="-302.274" y2="753.305" gradientUnits="userSpaceOnUse"><stop stop-color="#fff"/><stop offset="1" stop-color="#94B9FF"/></linearGradient><clipPath id="a"><path fill="#fff" d="M0 0h984.556v865.511H0z" transform="translate(228 79)"/></clipPath></defs></svg>