<svg xmlns="http://www.w3.org/2000/svg" viewBox="0 0 1084.53 1355.52"><defs><style>.cls-1,.cls-10,.cls-13,.cls-17,.cls-18,.cls-5{fill:none}.cls-1,.cls-18,.cls-19,.cls-2,.cls-3{stroke:#d8baa3}.cls-1,.cls-10,.cls-13,.cls-14,.cls-15,.cls-17,.cls-18,.cls-19,.cls-2,.cls-3,.cls-5{stroke-miterlimit:10}.cls-1,.cls-10,.cls-2,.cls-3{stroke-width:6px}.cls-12,.cls-14,.cls-16,.cls-19,.cls-2{fill:#fff}.cls-3,.cls-9{fill:#f0e1d4}.cls-4{fill:#722d54}.cls-10,.cls-15,.cls-5{stroke:#fff}.cls-10,.cls-18,.cls-19,.cls-5{stroke-linecap:round}.cls-13,.cls-14,.cls-18,.cls-19,.cls-5{stroke-width:5px}.cls-6{fill:#3f4d90}.cls-7{fill:#c36f0b}.cls-8{fill:#b65a18}.cls-11{fill:#ffb000}.cls-13,.cls-14,.cls-17{stroke:#722d54}.cls-15{fill:#3f4d79;stroke-width:2px}.cls-16{opacity:.2}.cls-17{stroke-width:3px}</style></defs><g id="Layer_2" data-name="Layer 2"><g id="Слой_1" data-name="Слой 1"><g id="_4" data-name="4"><g id="CHAIR"><path d="M955.63 1352.52H755.56a70.93 70.93 0 0 1-70.93-70.93V961.14a37.6 37.6 0 0 1 37.6-37.6h286.28a37.6 37.6 0 0 0 37.6-37.6v-66.3" class="cls-1"/><path d="M1056.63 1352.52H946.56a70.93 70.93 0 0 1-70.93-70.93V962.31a38.77 38.77 0 0 1 38.77-38.77" class="cls-1"/><path d="M1052.72 537.78a28.82 28.82 0 0 1 28.57 32.5l-28.17 217.87A156.46 156.46 0 0 1 898 924.54H584.74a16 16 0 0 1-16-16v-.2a16.1 16.1 0 0 1 13.6-15.84c67.17-11 169.46-41.61 179.79-134.33l25.24-195.26a28.81 28.81 0 0 1 28.57-25.11Z" class="cls-2"/><path d="m1081.29 570.28-28.17 217.87A156.46 156.46 0 0 1 898 924.54H584.75a16 16 0 0 1-16-16v-.2a15.84 15.84 0 0 1 1.75-7.25 15.36 15.36 0 0 0 13.64 8.27H887a150.32 150.32 0 0 0 149.06-131L1063.11 569a27.67 27.67 0 0 0-27.45-31.22h17.06a28.81 28.81 0 0 1 28.57 32.5Z" class="cls-3"/><path d="M684.63 1231.08h191" class="cls-1"/></g><g id="MAN"><g id="LEGS"><g id="SHOES"><path d="M386.69 1263.43c0 6.93 14.7 35.31 14.21 47.53s-52.83 11.08-78.74 11.24c-30.8.2-96.31.2-96.31.2s-6.35-28.24 27.38-32.15 74.51-39.56 74.51-39.56ZM754.69 1272.79c1.59 5.78 19.19 31.19 19.19 55.63 0 0-31.78 22-43 23.44s-103.65 0-103.65 0-2.22-30.28 38.14-35.52c28.35-3.69 29.31-38 29.31-38Z" class="cls-4"/><path d="M705.43 1322.45s-14.91-10-40.08-10.14" class="cls-5"/></g><g id="LEGS-2" data-name="LEGS"><path d="M879 681s45 81.09 27.37 138.78-121.75 48.12-121.75 48.12 33.25 128.59-15.39 399.42c0 0-38.37 20.54-103.88 6.85 0 0-9.78-126.13-55.21-404.79l-82.57-.17s12.63 203.15-124.78 392.31c0 0-43.41 11.28-91.32-20 0 0 60.55-275.62 70.85-444.75 3-49.81 84.55-93.69 269.46-115.68 0-.01 167.07 10.06 227.22-.09Z" class="cls-6"/><path d="M608.12 873.41c-3.45-19.55-22-105.78 90.47-133.16M775.89 837.15s7.78 10.57 11.75 31.75" class="cls-5"/></g></g><g id="LEFT_HAND" data-name="LEFT HAND"><path d="M590.16 613c-43.32 64.24-236.63 36.84-286.94 28.49-4.26 4.44-10 9.11-15.81 10.3-11.9 2.41-47.9-.72-52.68 3 0 0-2.08-9.8 9.46-15 8-3.58 21.69-.7 16.66-5.84-3.42-3.5-11.84-2.74-29.74 2.83-6.73 2.1-31.33 13.94-37.71-2.15l24.18-23c16.08-8.88 24.49-18.95 59.63-10.87a30.89 30.89 0 0 0 14.17.15c11.34-5.06 108.66-45.8 196.22-60l19.17-124.82c31.87 29.12 87.87 54.24 91.72 55.94 0 .16 10.06 113.75-8.33 140.97Z" class="cls-7"/><path d="M600.29 499.87c-19.31-8.58-67.36-32.21-95.83-68.55l2.31-15.06c31.87 29.11 87.87 54.23 91.72 55.93 0 0 1.01 11.32 1.8 27.68Z" class="cls-8"/></g><g id="SHIRT"><path d="M824.67 191.65c6.78 6.78 50.81 40.13 143.23 94.77 16.64 9.84 64.23 55.69 61.33 152.92 0 0-35.21 33.84-124.24 52.71 0 0-19.9 143.83-21.35 181.57s-226.89 21-236.57 6.54-47.88-145-48.36-207.87c0 0-94.84-41.64-111.29-80.83 0 0 39.67-91.91 66.29-108.36 31.7-19.59 117.28-46 169.17-88.58Z" class="cls-9"/><path d="m902.15 490.16-6.63-75.78M596.81 468.5s-4.57-44.64 9-92.43" class="cls-10"/><g id="TIE"><path d="M737.41 392.75c14.6 84.92 51.45 206-10.15 243 0 0 14.2-32.93-19.62-110.25-47.37-108.29 3.58-236.93 15.45-264.23l-17.38-22.8 25.34-25.67 7.3 1.15 23.18 27.69-25.3 25.13c-2.43 7.37-12.16 48.38 1.18 125.98Z" class="cls-11"/><path d="m743.92 223.46-28.21 28.18-2.32-3 27.85-27.83a1.9 1.9 0 0 1 2.68 2.69ZM753.39 234.83l-33 33c1-2.58 2-4.76 2.75-6.53l-.68-.89 28.3-28.28a1.9 1.9 0 0 1 2.68 2.68ZM735.93 267.78c-.46 1.52-1.06 3.87-1.7 7.05l-25.75 25.72q1.32-4.15 2.64-8ZM731.58 293.86c-.17 1.82-.32 3.75-.45 5.76L700 330.27c.6-2.42 1.22-4.8 1.84-7.13ZM730.56 322.94l-36.71 36.18c.38-2.19.79-4.36 1.21-6.51l35.47-35c0 1.76 0 3.52.03 5.33ZM731.68 347.42l-42 41.28q.29-3 .65-5.95l41-40.3c.1 1.63.22 3.28.35 4.97ZM734.08 370.64 687.93 416c0-1.84.11-3.66.17-5.48l45.39-44.62c.18 1.57.38 3.1.59 4.74ZM737.68 394.32l-49.29 47.82c-.11-1.68-.19-3.35-.26-5l48.79-47.33c.15 1 .32 2 .49 3 .08.46.18.98.27 1.51ZM742.17 418.32l-51 49.51c-.25-1.54-.47-3.08-.68-4.62l50.85-49.33c.25 1.47.53 2.95.83 4.44ZM747 442.78l-50.89 49.37c-.38-1.41-.73-2.83-1.07-4.24l51.07-49.54c.33 1.46.62 2.94.89 4.41ZM751.79 467.42l-48.59 47.14c-.49-1.3-1-2.6-1.42-3.9L751 463c.23 1.45.52 2.94.79 4.42ZM756.38 494.07l-44 42.71c-.5-1.25-1-2.5-1.54-3.78l44.85-43.5c.22 1.5.45 3.05.69 4.57ZM759.79 519.88l-39.65 38.47c-.42-1.32-.86-2.66-1.31-4l40.44-39.22c.19 1.58.36 3.17.52 4.75ZM761.66 547.42l-35.25 34.19c-.31-1.41-.63-2.85-1-4.32l36.07-35c.08 1.71.14 3.44.18 5.13ZM761 570.24c-.17 2-.38 3.94-.61 5.88l-30.49 29.57c-.11-1.56-.24-3.17-.42-4.86Z" class="cls-12"/></g><path d="M672.88 225.57c12.61 9.91 27.16 20.07 27.16 20.07l34.51-34.48 35.69 40.51c58.31-5.08 85.53-37.83 85.53-37.83" class="cls-10"/></g><g id="RIGHT_HAND" data-name="RIGHT HAND"><g id="_Группа_" data-name="&lt;Группа&gt;"><path d="M623.85 561.19H631a18.45 18.45 0 0 1 18.44 18.44v28.26A18.44 18.44 0 0 1 631 626.33h-7.1" class="cls-13"/><rect width="72.98" height="94.41" x="551.77" y="547.15" class="cls-14" rx="18.44"/></g><path d="M1011.41 451.72s6.28 137.08-12.06 159.44c-56.62 69-298.94 26.38-298.94 26.38l-.95-35.85s104.18-37.34 197.32-52.42L903.1 493s67.39-13.38 108.31-41.28Z" class="cls-7"/><path d="M1012.33 486.14c-34.81 17.82-89.52 19.1-109.93 18.55l.7-11.69s67.39-13.38 108.31-41.28c0 0 .65 14.28.92 34.42Z" class="cls-8"/><g id="_Группа_2" data-name="&lt;Группа&gt;"><path d="M703.05 598.42s-32.27-25.72-47.33-21.23-17 23.65-18.81 28.54-3.4 22.4-3.36 27.76 15.15 8 21.17 8 45.47.47 53.07-1.62-4.74-41.45-4.74-41.45Z" class="cls-7"/><path d="M654.72 641.5c-6 0-16.83.38-20.16-3.63-6.6-8-4.57-22.14-3.15-27.54 1.21-4.64 9.26-28.64 24.31-33.14 0 0-18.37 33.54-1 64.31" class="cls-8"/></g><rect width="16.8" height="46.1" x="700.32" y="595.33" class="cls-11" rx="6.34"/><rect width="32" height="32" x="692.63" y="602.42" class="cls-15" rx="5.92"/><path d="M692.63 628.51v-20.19a5.91 5.91 0 0 1 5.91-5.9h20.18Z" class="cls-16"/></g><g id="HEAD"><path id="NECK" d="M824.67 138.43s-14 27.55 0 53.22c4.64 8.5-105.58 3.61-105.58 3.61l14.13-56.83Z" class="cls-7"/><path id="HEAD-2" d="M723.49 53.18c-1.68 14.57-2.84 48.82-19.25 85.82s48.88 36.11 65.77 31.42c17.19-4.77 27.86-18.31 27.86-18.31s34.23-9 34.21-23c0-10.83-17.36-5.61-17.36-5.61s9.63-72.64-7.73-76.4-81.57-10.74-83.5 6.08Z" class="cls-7" data-name="HEAD"/><g id="HAIR"><path d="M813.81 125.32c-6 2.76-20.75-13.31-13.11-31 9.14-21.11 11.94-39.13-4.29-42.68s-32 15.48-65.29 6.1-28.23-51.11.38-54.39 32.36 18.27 37 18.74 36.16-13.62 53.77 4.67c14.62 15.19 9.44 24.45 13.43 25.39s17.7 6.52 16.76 21.06-24.13 50.23-24.13 50.23-5.39-2.34-14.52 1.88Z" class="cls-4"/><path d="M786.93 49.78C770.22 53.13 754 70 720.7 60.62s-28.24-55.85.37-59.13M830.07 52.13c3.71-1.75 17.91-5.92 26.24 6" class="cls-17"/><path d="M820.24 116.13c-5.39 5.63-18 25.53-20.36 46.78s-16.4 38.22-52 36.81-55.41-11.26-57.28-23 15.51-42.32 15.51-42.32 13.16-22.32 32.39-18 23 35.93 35.17 35.79c22.81-.27 33.63-42.81 33.63-42.81Z" class="cls-4"/></g><g id="HEADPHONES"><path d="M826.56 125V19.29A11.76 11.76 0 0 0 814.8 7.53h-33.36a11.75 11.75 0 0 0-11.75 11.76M825.16 136.09v15a15.5 15.5 0 0 1-15.5 15.5h-75.11" class="cls-18"/><ellipse cx="825.16" cy="133.25" class="cls-19" rx="18.08" ry="15.19" transform="rotate(-79.51 825.142 133.26)"/><ellipse cx="735.13" cy="166.49" class="cls-12" rx="6.91" ry="8.23" transform="rotate(-79.51 735.112 166.497)"/></g></g></g><g id="COMPUTER"><path d="M568.28 528.49H72.12C66 528.49 61 523 61 516.22L3 201.93c0-6.78 5-12.27 11.14-12.27h496.17c6.15 0 11.14 5.49 11.14 12.27l58 314.29c-.02 6.78-5.01 12.27-11.17 12.27Z" class="cls-2"/><path d="M556.16 528.49H71.39c-5.92 0-10.71-5.28-10.71-11.8L4.93 214.52c0-6.52 4.8-11.8 10.72-11.8h484.76c5.92 0 10.72 5.28 10.72 11.8l55.74 302.17c0 6.52-4.8 11.8-10.71 11.8Z" class="cls-2"/><path d="m320.4 424.23 26.79 101.36H320.4V424.23z" class="cls-9"/><path d="M471.17 626.86v12.05L297 596.58l-174.19 42.33v-12.05l155.95-50.54v-149.2h38.74v149.94l153.67 49.8z" class="cls-2"/><path d="M120.88 639.87h596.17A19.1 19.1 0 0 1 736.14 659v5a19.09 19.09 0 0 1-19.09 19.09H121.18Z" class="cls-12"/><path d="M120.88 639.87h596.17A19.1 19.1 0 0 1 736.14 659v5a19.09 19.09 0 0 1-19.09 19.09H121.18" class="cls-1"/><path d="M568.28 1352.9V683.83h41.59v669.02l-41.59.05z" class="cls-12"/><path d="M568.28 697.1v-13.27h41.59v46.12l-41.59-32.85z" class="cls-9"/><path d="M568.28 1352.9V683.83h41.59v669.29" class="cls-1"/></g></g></g></g></svg>